<?xml version="1.0" encoding="UTF-8" standalone="no"?>
<!-- Created with Inkscape (http://www.inkscape.org/) -->

<svg
   xmlns:dc="http://purl.org/dc/elements/1.1/"
   xmlns:cc="http://creativecommons.org/ns#"
   xmlns:rdf="http://www.w3.org/1999/02/22-rdf-syntax-ns#"
   xmlns:svg="http://www.w3.org/2000/svg"
   xmlns="http://www.w3.org/2000/svg"
   xmlns:sodipodi="http://sodipodi.sourceforge.net/DTD/sodipodi-0.dtd"
   xmlns:inkscape="http://www.inkscape.org/namespaces/inkscape"
   width="210mm"
   height="297mm"
   viewBox="0 0 744.09448819 1052.3622047"
   id="svg4432"
   version="1.1"
   inkscape:version="0.91 r13725"
   sodipodi:docname="logo.svg">
  <defs
     id="defs4434" />
  <sodipodi:namedview
     id="base"
     pagecolor="#ffffff"
     bordercolor="#666666"
     borderopacity="1.0"
     inkscape:pageopacity="0.0"
     inkscape:pageshadow="2"
     inkscape:zoom="0.35"
     inkscape:cx="-127.85714"
     inkscape:cy="520"
     inkscape:document-units="px"
     inkscape:current-layer="layer1"
     showgrid="false"
     inkscape:window-width="1184"
     inkscape:window-height="1078"
     inkscape:window-x="0"
     inkscape:window-y="0"
     inkscape:window-maximized="0" />
  <metadata
     id="metadata4437">
    <rdf:RDF>
      <cc:Work
         rdf:about="">
        <dc:format>image/svg+xml</dc:format>
        <dc:type
           rdf:resource="http://purl.org/dc/dcmitype/StillImage" />
        <dc:title></dc:title>
      </cc:Work>
    </rdf:RDF>
  </metadata>
  <g
     inkscape:label="Layer 1"
     inkscape:groupmode="layer"
     id="layer1">
    <path
       style="fill:none;fill-rule:evenodd;stroke:#000000;stroke-width:5.5;stroke-linecap:butt;stroke-linejoin:miter;stroke-miterlimit:4;stroke-dasharray:none;stroke-opacity:1"
       d="m 272.36242,596.11321 17.14286,-162.8571 151.42857,11.4286 -57.14286,171.4285"
       id="path3336"
       inkscape:connector-curvature="0"
       inkscape:export-xdpi="12.85"
       inkscape:export-ydpi="12.85"
       inkscape:export-filename="/home/noon/dev/foot-in-the-door/static/img/fitd-smaller.png" />
    <path
       style="fill:#2b0000"
       id="path3362"
       d="m 317.90693,498.83831 c -2.36032,0.7925 -6.47848,3.4208 2.83748,-1.9083 -1.07234,0.6608 -1.72063,1.6726 -2.15796,2.8253 -0.44764,1.4078 -0.18513,2.8021 0.23771,4.1743 0.44229,1.3633 1.22716,2.3915 2.48575,3.0663 1.50863,0.6339 3.1219,0.5848 4.71137,0.3828 2.78657,-0.3256 8.47907,-3.9591 -1.00889,1.4618 1.14239,-0.6318 1.95465,-1.545 2.42656,-2.7515 0.3825,-1.3844 -0.0346,-2.7875 -0.4563,-4.1117 -0.46579,-1.4617 -1.24432,-2.7374 -2.29124,-3.8461 -0.96105,-0.9664 -2.11073,-1.6545 -3.36229,-2.1672 -0.7584,-0.2333 -0.37797,-0.1414 -1.1405,-0.279 0,0 5.21513,-3.6158 5.21513,-3.6158 l 0,0 c 0.80661,0.2144 0.40648,0.088 1.19988,0.3819 1.3007,0.5897 2.49713,1.3609 3.49502,2.3945 1.08752,1.1925 1.91206,2.5468 2.41931,4.0887 0.47358,1.4304 0.92382,2.9369 0.66508,4.4555 -0.37025,1.3283 -1.08266,2.4227 -2.26231,3.1816 -3.36776,1.9298 -6.14995,4.1183 -9.96785,4.5694 -1.69484,0.1331 -3.39809,0.082 -4.94959,-0.7014 -1.33023,-0.8295 -2.23153,-1.9646 -2.7243,-3.4678 -0.47313,-1.4712 -0.79544,-2.9835 -0.42518,-4.5211 0.35559,-1.2558 0.94173,-2.3822 1.96846,-3.2243 2.66939,-1.5488 5.17805,-3.4179 8.15486,-4.2917 0,0 -5.0702,3.9038 -5.0702,3.9038 z"
       inkscape:connector-curvature="0"
       inkscape:export-xdpi="12.85"
       inkscape:export-ydpi="12.85"
       inkscape:export-filename="/home/noon/dev/foot-in-the-door/static/img/fitd-smaller.png" />
    <path
       style="fill:#000000;fill-opacity:1;stroke:#000000;stroke-width:0;stroke-miterlimit:4;stroke-dasharray:none;stroke-opacity:1"
       id="path4184"
       d="m 277.2058,591.29341 c 0.77647,-0.1084 1.49619,-0.4428 2.21741,-0.7345 5.07505,-2.8626 -6.58656,4.0593 -2.32235,1.3201 0.3876,-0.249 0.77165,-0.5035 1.15428,-0.7601 0.47116,-0.3159 0.938,-0.6382 1.407,-0.9573 4.12227,-2.9165 8.26496,-5.7992 12.50784,-8.5377 6.85949,-4.2673 13.94083,-8.1443 21.11902,-11.8422 4.32557,-2.2501 8.64549,-4.5114 12.95738,-6.7878 0.85548,-0.445 2.48507,-1.2877 3.3549,-1.7588 0.48811,-0.2644 1.9353,-1.0884 1.45559,-0.8091 -7.86947,4.5824 -3.3996,1.9596 -1.71239,0.7286 1.89889,-1.3876 3.17439,-3.2055 4.04017,-5.3623 0.79523,-2.5476 0.90517,-5.2462 1.08274,-7.8921 0.1999,-3.2614 0.30353,-6.5277 0.39783,-9.7935 0.11122,-3.6476 0.039,-7.2978 0.002,-10.9461 -0.035,-4.8878 0.2703,-9.7675 0.55791,-14.6441 0.46937,-8.0128 1.389,-15.9872 2.30323,-23.9584 0.78901,-7.0995 1.66652,-14.1886 2.49069,-21.2841 0.57899,-4.9956 1.09516,-9.9981 1.57842,-15.0038 0.31354,-2.9668 0.66139,-5.9298 0.98582,-8.8955 0,0 5.53767,-2.7437 5.53767,-2.7437 l 0,0 c -0.34569,2.9764 -0.71643,5.9498 -1.06379,8.926 -0.52746,5.0319 -1.09238,10.0597 -1.70892,15.0815 -0.88477,7.1186 -1.8155,14.2315 -2.64437,21.3569 -0.91871,7.9338 -1.82209,15.8753 -2.18618,23.8582 -0.20642,4.8359 -0.40254,9.673 -0.38472,14.5145 0.0429,3.6522 0.11853,7.3062 0.0256,10.958 -0.0822,3.2656 -0.17205,6.5315 -0.3481,9.7936 -0.16033,2.6897 -0.27171,5.4211 -0.95832,8.0378 -0.80266,2.262 -1.99408,4.2102 -3.92579,5.6984 -4.18721,3.211 -8.99587,5.4914 -13.63909,7.9607 -4.28115,2.2447 -8.56533,4.4839 -12.85987,6.7028 -1.7891,0.9217 -3.48089,1.7867 -5.26011,2.7303 -0.91742,0.4865 -1.73152,1.2439 -2.74386,1.4753 -0.8913,0.2038 3.14802,-1.8612 2.36525,-1.3888 -1.74294,1.0519 -3.523,2.0416 -5.2508,3.119 -4.19379,2.6976 -8.29534,5.5282 -12.33602,8.4506 -3.49379,2.4342 -7.07328,4.8175 -10.96435,6.572 -0.75943,0.2977 -1.53181,0.5484 -2.33874,0.6821 0,0 5.10662,-3.8665 5.10662,-3.8665 z"
       inkscape:connector-curvature="0"
       inkscape:export-xdpi="12.85"
       inkscape:export-ydpi="12.85"
       inkscape:export-filename="/home/noon/dev/foot-in-the-door/static/img/fitd-smaller.png" />
    <path
       style="fill:#000000;fill-opacity:1;stroke:#000000;stroke-width:0;stroke-miterlimit:4;stroke-dasharray:none;stroke-opacity:1"
       id="path4196"
       d="m 285.08795,591.46321 c 2.05323,0.276 4.10132,0.5526 6.13621,0.9568 3.467,0.5895 6.91411,1.2822 10.36501,1.958 4.36338,0.9769 8.72424,1.9525 13.12368,2.7545 4.78529,0.7418 9.55804,1.5632 14.34655,2.2853 4.5039,0.6196 9.00921,1.238 13.49425,1.9843 4.31404,0.7711 8.67042,1.2656 12.99608,1.9577 3.73564,0.636 7.48481,1.1832 11.24437,1.6557 3.31874,0.4525 6.59472,1.1226 9.87422,1.7912 0,0 -10.35373,7.2064 -10.35373,7.2064 l 0,0 c -3.24718,-0.6726 -6.50143,-1.3027 -9.79123,-1.7353 -3.75385,-0.4982 -7.49557,-1.0763 -11.22934,-1.7078 -4.32428,-0.6641 -8.66287,-1.2359 -12.97477,-1.9814 -4.48489,-0.7124 -8.98167,-1.3438 -13.47752,-1.9817 -4.79105,-0.7439 -9.57092,-1.5601 -14.35883,-2.3229 -4.41237,-0.8208 -8.79118,-1.7971 -13.18099,-2.7291 -3.47343,-0.6681 -6.95173,-1.3065 -10.44101,-1.8869 -2.02644,-0.3347 -4.07264,-0.6598 -6.13015,-0.6799 0,0 10.3572,-7.5249 10.3572,-7.5249 z"
       inkscape:connector-curvature="0"
       inkscape:export-xdpi="12.85"
       inkscape:export-ydpi="12.85"
       inkscape:export-filename="/home/noon/dev/foot-in-the-door/static/img/fitd-smaller.png" />
    <path
       style="fill:#6c34ff;fill-opacity:1;stroke:#000000;stroke-width:0;stroke-miterlimit:4;stroke-dasharray:none;stroke-opacity:1"
       id="path4372"
       d="m 286.91706,615.81991 c 1.31777,0.5688 2.41007,1.5999 3.48536,2.5272 3.35009,2.9771 6.20157,6.444 9.03144,9.9028 4.39536,5.2705 8.13387,11.0281 11.79588,16.8177 3.01869,4.8793 6.05688,9.7466 9.07906,14.6237 1.73323,2.7196 3.22683,5.6411 5.42151,8.0307 0.17669,0.1357 0.33157,0.3059 0.53007,0.4071 0.55281,0.2816 0.76616,-0.3491 0.93127,-0.7171 0.0981,-0.2186 0.45796,-0.826 0.28592,-0.6593 -5.36863,5.2012 -10.6091,10.5331 -15.91364,15.7996 0.17254,-0.2399 0.3844,-0.456 0.51762,-0.7198 1.16468,-2.306 1.24929,-6.7197 1.44099,-9.2578 0.46483,-6.358 0.78145,-12.7242 1.34191,-19.0751 0.71419,-7.5918 2.09725,-15.0965 3.55904,-22.5732 1.71304,-8.7979 4.59342,-17.2853 7.75574,-25.6501 3.1032,-8.4764 7.40625,-16.3926 12.12523,-24.0575 3.66349,-5.855 7.70073,-11.4621 11.8682,-16.9655 1.53631,-2.0306 3.14135,-4.007 4.74991,-5.9803 0,0 19.89356,-14.767 19.89356,-14.767 l 0,0 c -1.51352,1.8638 -3.03189,3.7247 -4.46478,5.652 -3.92567,5.2344 -7.69292,10.5907 -11.17178,16.1342 -4.6026,7.4977 -8.93991,15.1609 -12.07747,23.4105 -3.30599,8.3438 -6.33237,16.81 -8.35195,25.5705 -1.64943,7.5103 -3.2325,15.0479 -4.12864,22.6923 -0.73442,6.4918 -1.1751,13.0087 -1.8438,19.5071 -0.52794,4.0342 -1.07377,8.0945 -2.37081,11.9687 -5.63316,5.7072 -11.17183,11.5091 -16.89946,17.1215 -0.8497,0.8326 -3.711,-0.4242 -4.47647,-0.9681 -2.70712,-2.0977 -4.72406,-4.8808 -6.68679,-7.6594 -3.24891,-4.6768 -6.48506,-9.3619 -9.64092,-14.1024 -3.77068,-5.6627 -7.44363,-11.3936 -11.42679,-16.9112 -2.53796,-3.5981 -4.96943,-7.278 -7.69142,-10.742 -0.86203,-0.991 -1.73701,-1.9714 -2.68457,-2.8821 0,0 16.01658,-16.4777 16.01658,-16.4777 z"
       inkscape:connector-curvature="0"
       inkscape:export-filename="/home/noon/dev/foot-in-the-door/static/img/fitd-smaller.png"
       inkscape:export-xdpi="12.85"
       inkscape:export-ydpi="12.85" />
  </g>
</svg>
